<svg xmlns="http://www.w3.org/2000/svg" xmlns:xlink="http://www.w3.org/1999/xlink" width="1076" height="1341" contentStyleType="text/css" preserveAspectRatio="none" style="width:1076px;height:1341px;background:#fff" version="1.1" viewBox="0 0 1076 1341" zoomAndPan="magnify"><g><text x="395" y="27.995" fill="#000" font-family="sans-serif" font-size="14" font-weight="bold" lengthAdjust="spacing" textLength="289">EIP-7701 Complete Transaction Flow</text><rect width="725" height="599.258" x="223" fill="none" style="stroke:#000;stroke-width:1.5" y="269.125"/><rect width="546" height="194.93" x="233" fill="none" style="stroke:#000;stroke-width:1.5" y="318.258"/><rect width="705" height="150.664" x="233" fill="none" style="stroke:#000;stroke-width:1.5" y="685.719"/><rect width="847" height="361.195" x="223" fill="none" style="stroke:#000;stroke-width:1.5" y="882.383"/><rect width="705" height="106.398" x="233" fill="none" style="stroke:#000;stroke-width:1.5" y="1105.18"/><line style="stroke:#181818;stroke-width:.5;stroke-dasharray:5,5" x1="24" x2="24" y1="118.594" y2="1260.578"/><line style="stroke:#181818;stroke-width:.5;stroke-dasharray:5,5" x1="192" x2="192" y1="118.594" y2="1260.578"/><line style="stroke:#181818;stroke-width:.5;stroke-dasharray:5,5" x1="310" x2="310" y1="118.594" y2="1260.578"/><line style="stroke:#181818;stroke-width:.5;stroke-dasharray:5,5" x1="528" x2="528" y1="118.594" y2="1260.578"/><line style="stroke:#181818;stroke-width:.5;stroke-dasharray:5,5" x1="705" x2="705" y1="118.594" y2="1260.578"/><line style="stroke:#181818;stroke-width:.5;stroke-dasharray:5,5" x1="853" x2="853" y1="118.594" y2="1260.578"/><line style="stroke:#181818;stroke-width:.5;stroke-dasharray:5,5" x1="999" x2="999" y1="118.594" y2="1260.578"/><text x="5" y="115.292" fill="#000" font-family="sans-serif" font-size="14" lengthAdjust="spacing" textLength="32">User</text><ellipse cx="24" cy="50.797" fill="#E2E2F0" rx="8" ry="8" style="stroke:#181818;stroke-width:.5"/><path fill="none" d="M24,58.7969 L24,85.7969 M11,66.7969 L37,66.7969 M24,85.7969 L11,100.7969 M24,85.7969 L37,100.7969" style="stroke:#181818;stroke-width:.5"/><text x="5" y="1272.573" fill="#000" font-family="sans-serif" font-size="14" lengthAdjust="spacing" textLength="32">User</text><ellipse cx="24" cy="1284.375" fill="#E2E2F0" rx="8" ry="8" style="stroke:#181818;stroke-width:.5"/><path fill="none" d="M24,1292.375 L24,1319.375 M11,1300.375 L37,1300.375 M24,1319.375 L11,1334.375 M24,1319.375 L37,1334.375" style="stroke:#181818;stroke-width:.5"/><rect width="82" height="30.297" x="151" y="87.297" fill="#006400" rx="2.5" ry="2.5" style="stroke:#181818;stroke-width:.5"/><text x="158" y="107.292" fill="#FFF" font-family="sans-serif" font-size="14" lengthAdjust="spacing" textLength="68">Ethereum</text><rect width="82" height="30.297" x="151" y="1259.578" fill="#006400" rx="2.5" ry="2.5" style="stroke:#181818;stroke-width:.5"/><text x="158" y="1279.573" fill="#FFF" font-family="sans-serif" font-size="14" lengthAdjust="spacing" textLength="68">Ethereum</text><rect width="135" height="30.297" x="243" y="87.297" fill="#006400" rx="2.5" ry="2.5" style="stroke:#181818;stroke-width:.5"/><text x="250" y="107.292" fill="#FFF" font-family="sans-serif" font-size="14" lengthAdjust="spacing" textLength="121">AA_ENTRY_POINT</text><rect width="135" height="30.297" x="243" y="1259.578" fill="#006400" rx="2.5" ry="2.5" style="stroke:#181818;stroke-width:.5"/><text x="250" y="1279.573" fill="#FFF" font-family="sans-serif" font-size="14" lengthAdjust="spacing" textLength="121">AA_ENTRY_POINT</text><rect width="139" height="30.297" x="459" y="87.297" fill="#483D8B" rx="2.5" ry="2.5" style="stroke:#181818;stroke-width:.5"/><text x="466" y="107.292" fill="#FFF" font-family="sans-serif" font-size="14" lengthAdjust="spacing" textLength="125">Deployer Contract</text><rect width="139" height="30.297" x="459" y="1259.578" fill="#483D8B" rx="2.5" ry="2.5" style="stroke:#181818;stroke-width:.5"/><text x="466" y="1279.573" fill="#FFF" font-family="sans-serif" font-size="14" lengthAdjust="spacing" textLength="125">Deployer Contract</text><rect width="127" height="30.297" x="642" y="87.297" fill="#9932CC" rx="2.5" ry="2.5" style="stroke:#181818;stroke-width:.5"/><text x="649" y="107.292" fill="#FFF" font-family="sans-serif" font-size="14" lengthAdjust="spacing" textLength="113">Sender Contract</text><rect width="127" height="30.297" x="642" y="1259.578" fill="#9932CC" rx="2.5" ry="2.5" style="stroke:#181818;stroke-width:.5"/><text x="649" y="1279.573" fill="#FFF" font-family="sans-serif" font-size="14" lengthAdjust="spacing" textLength="113">Sender Contract</text><rect width="149" height="30.297" x="779" y="87.297" fill="#6B8E23" rx="2.5" ry="2.5" style="stroke:#181818;stroke-width:.5"/><text x="786" y="107.292" fill="#FFF" font-family="sans-serif" font-size="14" lengthAdjust="spacing" textLength="135">Paymaster Contract</text><rect width="149" height="30.297" x="779" y="1259.578" fill="#6B8E23" rx="2.5" ry="2.5" style="stroke:#181818;stroke-width:.5"/><text x="786" y="1279.573" fill="#FFF" font-family="sans-serif" font-size="14" lengthAdjust="spacing" textLength="135">Paymaster Contract</text><rect width="122" height="30.297" x="938" y="87.297" fill="#8B0000" rx="2.5" ry="2.5" style="stroke:#181818;stroke-width:.5"/><text x="945" y="107.292" fill="#FFF" font-family="sans-serif" font-size="14" lengthAdjust="spacing" textLength="108">Target Contract</text><rect width="122" height="30.297" x="938" y="1259.578" fill="#8B0000" rx="2.5" ry="2.5" style="stroke:#181818;stroke-width:.5"/><text x="945" y="1279.573" fill="#FFF" font-family="sans-serif" font-size="14" lengthAdjust="spacing" textLength="108">Target Contract</text><polygon fill="#181818" points="180 145.727 190 149.727 180 153.727 184 149.727" style="stroke:#181818;stroke-width:1"/><line style="stroke:#181818;stroke-width:1" x1="24" x2="186" y1="149.727" y2="149.727"/><text x="31" y="144.661" fill="#000" font-family="sans-serif" font-size="13" lengthAdjust="spacing" textLength="144">Submit AA transaction</text><path fill="#FEFFDD" d="M197,162.7266 L197,217.7266 L315,217.7266 L315,172.7266 L305,162.7266 L197,162.7266" style="stroke:#181818;stroke-width:.5"/><path fill="#FEFFDD" d="M305,162.7266 L305,172.7266 L315,172.7266 L305,162.7266" style="stroke:#181818;stroke-width:.5"/><text x="203" y="179.793" fill="#000" font-family="sans-serif" font-size="13" lengthAdjust="spacing" textLength="51">execute</text><text x="203" y="194.926" fill="#000" font-family="sans-serif" font-size="13" lengthAdjust="spacing" textLength="94">AA transaction</text><text x="203" y="210.059" fill="#000" font-family="sans-serif" font-size="13" lengthAdjust="spacing" textLength="97">state transition</text><polygon fill="#181818" points="298.5 225.125 308.5 229.125 298.5 233.125 302.5 229.125" style="stroke:#181818;stroke-width:1"/><line style="stroke:#181818;stroke-width:1" x1="192" x2="304.5" y1="229.125" y2="229.125"/><path fill="#EEE" d="M223,269.125 L392,269.125 L392,276.2578 L382,286.2578 L223,286.2578 L223,269.125" style="stroke:#000;stroke-width:1.5"/><rect width="725" height="599.258" x="223" fill="none" style="stroke:#000;stroke-width:1.5" y="269.125"/><text x="238" y="282.192" fill="#000" font-family="sans-serif" font-size="13" font-weight="bold" lengthAdjust="spacing" textLength="124">Validation Phase</text><path fill="#EEE" d="M233,318.2578 L303,318.2578 L303,325.3906 L293,335.3906 L233,335.3906 L233,318.2578" style="stroke:#000;stroke-width:1.5"/><rect width="546" height="194.93" x="233" fill="none" style="stroke:#000;stroke-width:1.5" y="318.258"/><text x="248" y="331.325" fill="#000" font-family="sans-serif" font-size="13" font-weight="bold" lengthAdjust="spacing" textLength="25">opt</text><text x="318" y="330.468" fill="#000" font-family="sans-serif" font-size="11" font-weight="bold" lengthAdjust="spacing" textLength="135">[Sender Deployment]</text><polygon fill="#181818" points="516.5 367.656 526.5 371.656 516.5 375.656 520.5 371.656" style="stroke:#181818;stroke-width:1"/><line style="stroke:#181818;stroke-width:1" x1="310.5" x2="522.5" y1="371.656" y2="371.656"/><text x="317.5" y="351.457" fill="#000" font-family="sans-serif" font-size="13" lengthAdjust="spacing" textLength="194">Deploy AA Transaction Sender</text><text x="317.5" y="366.59" fill="#000" font-family="monospace" font-size="13" lengthAdjust="spacing" textLength="96">deployerData</text><path fill="#FEFFDD" d="M458,384.6563 L458,409.6563 L599,409.6563 L599,394.6563 L589,384.6563 L458,384.6563" style="stroke:#181818;stroke-width:.5"/><path fill="#FEFFDD" d="M589,384.6563 L589,394.6563 L599,394.6563 L589,384.6563" style="stroke:#181818;stroke-width:.5"/><text x="464" y="401.723" fill="#000" font-family="monospace" font-size="13" lengthAdjust="spacing" textLength="120">ACCEPTROLE 0xA0</text><polygon fill="#181818" points="693.5 447.055 703.5 451.055 693.5 455.055 697.5 451.055" style="stroke:#181818;stroke-width:1"/><line style="stroke:#181818;stroke-width:1" x1="528.5" x2="699.5" y1="451.055" y2="451.055"/><text x="535.5" y="430.856" fill="#000" font-family="sans-serif" font-size="13" lengthAdjust="spacing" textLength="153">Deploy Sender Contract</text><text x="535.5" y="445.989" fill="#000" font-family="monospace" font-size="13" lengthAdjust="spacing" textLength="56">CREATE2</text><polygon fill="#181818" points="321.5 476.188 311.5 480.188 321.5 484.188 317.5 480.188" style="stroke:#181818;stroke-width:1"/><line style="stroke:#181818;stroke-width:1;stroke-dasharray:2,2" x1="315.5" x2="527.5" y1="480.188" y2="480.188"/><text x="327.5" y="475.122" fill="#000" font-family="sans-serif" font-size="13" lengthAdjust="spacing" textLength="92">deployed: true</text><polygon fill="#181818" points="693.5 577.453 703.5 581.453 693.5 585.453 697.5 581.453" style="stroke:#181818;stroke-width:1"/><line style="stroke:#181818;stroke-width:1" x1="310.5" x2="699.5" y1="581.453" y2="581.453"/><text x="317.5" y="561.254" fill="#000" font-family="sans-serif" font-size="13" lengthAdjust="spacing" textLength="152">Validate AA Transaction</text><text x="317.5" y="576.387" fill="#000" font-family="monospace" font-size="13" lengthAdjust="spacing" textLength="160">senderValidationData</text><path fill="#FEFFDD" d="M635,594.4531 L635,619.4531 L776,619.4531 L776,604.4531 L766,594.4531 L635,594.4531" style="stroke:#181818;stroke-width:.5"/><path fill="#FEFFDD" d="M766,594.4531 L766,604.4531 L776,604.4531 L766,594.4531" style="stroke:#181818;stroke-width:.5"/><text x="641" y="611.52" fill="#000" font-family="monospace" font-size="13" lengthAdjust="spacing" textLength="120">ACCEPTROLE 0xA1</text><polygon fill="#181818" points="321.5 641.719 311.5 645.719 321.5 649.719 317.5 645.719" style="stroke:#181818;stroke-width:1"/><line style="stroke:#181818;stroke-width:1;stroke-dasharray:2,2" x1="315.5" x2="704.5" y1="645.719" y2="645.719"/><text x="327.5" y="640.653" fill="#000" font-family="sans-serif" font-size="13" lengthAdjust="spacing" textLength="63">valid: true</text><path fill="#EEE" d="M233,685.7188 L303,685.7188 L303,692.8516 L293,702.8516 L233,702.8516 L233,685.7188" style="stroke:#000;stroke-width:1.5"/><rect width="705" height="150.664" x="233" fill="none" style="stroke:#000;stroke-width:1.5" y="685.719"/><text x="248" y="698.786" fill="#000" font-family="sans-serif" font-size="13" font-weight="bold" lengthAdjust="spacing" textLength="25">opt</text><text x="318" y="697.929" fill="#000" font-family="sans-serif" font-size="11" font-weight="bold" lengthAdjust="spacing" textLength="111">[Gas Abstraction]</text><polygon fill="#181818" points="841.5 735.117 851.5 739.117 841.5 743.117 845.5 739.117" style="stroke:#181818;stroke-width:1"/><line style="stroke:#181818;stroke-width:1" x1="310.5" x2="847.5" y1="739.117" y2="739.117"/><text x="317.5" y="718.918" fill="#000" font-family="sans-serif" font-size="13" lengthAdjust="spacing" textLength="152">Validate AA Transaction</text><text x="317.5" y="734.051" fill="#000" font-family="monospace" font-size="13" lengthAdjust="spacing" textLength="104">paymasterData</text><path fill="#FEFFDD" d="M783,752.1172 L783,777.1172 L924,777.1172 L924,762.1172 L914,752.1172 L783,752.1172" style="stroke:#181818;stroke-width:.5"/><path fill="#FEFFDD" d="M914,752.1172 L914,762.1172 L924,762.1172 L914,752.1172" style="stroke:#181818;stroke-width:.5"/><text x="789" y="769.184" fill="#000" font-family="monospace" font-size="13" lengthAdjust="spacing" textLength="120">ACCEPTROLE 0xA2</text><polygon fill="#181818" points="321.5 799.383 311.5 803.383 321.5 807.383 317.5 803.383" style="stroke:#181818;stroke-width:1"/><line style="stroke:#181818;stroke-width:1;stroke-dasharray:2,2" x1="315.5" x2="852.5" y1="803.383" y2="803.383"/><text x="327.5" y="798.317" fill="#000" font-family="sans-serif" font-size="13" lengthAdjust="spacing" textLength="63">valid: true</text><path fill="#EEE" d="M223,882.3828 L389,882.3828 L389,889.5156 L379,899.5156 L223,899.5156 L223,882.3828" style="stroke:#000;stroke-width:1.5"/><rect width="847" height="361.195" x="223" fill="none" style="stroke:#000;stroke-width:1.5" y="882.383"/><text x="238" y="895.45" fill="#000" font-family="sans-serif" font-size="13" font-weight="bold" lengthAdjust="spacing" textLength="121">Execution Phase</text><polygon fill="#181818" points="693.5 956.781 703.5 960.781 693.5 964.781 697.5 960.781" style="stroke:#181818;stroke-width:1"/><line style="stroke:#181818;stroke-width:1" x1="310.5" x2="699.5" y1="960.781" y2="960.781"/><text x="317.5" y="940.582" fill="#000" font-family="sans-serif" font-size="13" lengthAdjust="spacing" textLength="151">Execute AA Transaction</text><text x="317.5" y="955.715" fill="#000" font-family="monospace" font-size="13" lengthAdjust="spacing" textLength="152">senderExecutionData</text><path fill="#FEFFDD" d="M635,973.7813 L635,998.7813 L776,998.7813 L776,983.7813 L766,973.7813 L635,973.7813" style="stroke:#181818;stroke-width:.5"/><path fill="#FEFFDD" d="M766,973.7813 L766,983.7813 L776,983.7813 L766,973.7813" style="stroke:#181818;stroke-width:.5"/><text x="641" y="990.848" fill="#000" font-family="monospace" font-size="13" lengthAdjust="spacing" textLength="120">ACCEPTROLE 0xA3</text><polygon fill="#181818" points="987 1061.18 997 1065.18 987 1069.18 991 1065.18" style="stroke:#181818;stroke-width:1"/><line style="stroke:#181818;stroke-width:1" x1="705.5" x2="993" y1="1065.18" y2="1065.18"/><text x="712.5" y="1044.981" fill="#000" font-family="sans-serif" font-size="13" lengthAdjust="spacing" textLength="96">AA Transaction</text><text x="712.5" y="1060.114" fill="#000" font-family="sans-serif" font-size="13" lengthAdjust="spacing" textLength="98">Execution Body</text><path fill="#EEE" d="M233,1105.1797 L303,1105.1797 L303,1112.3125 L293,1122.3125 L233,1122.3125 L233,1105.1797" style="stroke:#000;stroke-width:1.5"/><rect width="705" height="106.398" x="233" fill="none" style="stroke:#000;stroke-width:1.5" y="1105.18"/><text x="248" y="1118.247" fill="#000" font-family="sans-serif" font-size="13" font-weight="bold" lengthAdjust="spacing" textLength="25">opt</text><text x="318" y="1117.39" fill="#000" font-family="sans-serif" font-size="11" font-weight="bold" lengthAdjust="spacing" textLength="56">[PostOp]</text><polygon fill="#181818" points="841.5 1139.445 851.5 1143.445 841.5 1147.445 845.5 1143.445" style="stroke:#181818;stroke-width:1"/><line style="stroke:#181818;stroke-width:1" x1="310.5" x2="847.5" y1="1143.445" y2="1143.445"/><text x="317.5" y="1138.379" fill="#000" font-family="sans-serif" font-size="13" lengthAdjust="spacing" textLength="146">Paymaster PostOp Call</text><path fill="#FEFFDD" d="M783,1156.4453 L783,1181.4453 L924,1181.4453 L924,1166.4453 L914,1156.4453 L783,1156.4453" style="stroke:#181818;stroke-width:.5"/><path fill="#FEFFDD" d="M914,1156.4453 L914,1166.4453 L924,1166.4453 L914,1156.4453" style="stroke:#181818;stroke-width:.5"/><text x="789" y="1173.512" fill="#000" font-family="monospace" font-size="13" lengthAdjust="spacing" textLength="120">ACCEPTROLE 0xA4</text></g></svg>