<svg xmlns="http://www.w3.org/2000/svg" xmlns:xlink="http://www.w3.org/1999/xlink" width="706" height="797" contentStyleType="text/css" preserveAspectRatio="none" style="width:706px;height:797px;background:#fff" version="1.1" viewBox="0 0 706 797" zoomAndPan="magnify"><g><text x="221.5" y="27.995" fill="#000" font-family="sans-serif" font-size="14" font-weight="bold" lengthAdjust="spacing" textLength="266">EIP-7701 Simple Transaction Flow</text><rect width="342" height="175.664" x="233" fill="none" style="stroke:#000;stroke-width:1.5" y="269.125"/><rect width="467" height="190.797" x="233" fill="none" style="stroke:#000;stroke-width:1.5" y="483.789"/><line style="stroke:#181818;stroke-width:.5;stroke-dasharray:5,5" x1="24" x2="24" y1="118.594" y2="716.586"/><line style="stroke:#181818;stroke-width:.5;stroke-dasharray:5,5" x1="192" x2="192" y1="118.594" y2="716.586"/><line style="stroke:#181818;stroke-width:.5;stroke-dasharray:5,5" x1="310" x2="310" y1="118.594" y2="716.586"/><line style="stroke:#181818;stroke-width:.5;stroke-dasharray:5,5" x1="494" x2="494" y1="118.594" y2="716.586"/><line style="stroke:#181818;stroke-width:.5;stroke-dasharray:5,5" x1="629" x2="629" y1="118.594" y2="716.586"/><text x="5" y="115.292" fill="#000" font-family="sans-serif" font-size="14" lengthAdjust="spacing" textLength="32">User</text><ellipse cx="24" cy="50.797" fill="#E2E2F0" rx="8" ry="8" style="stroke:#181818;stroke-width:.5"/><path fill="none" d="M24,58.7969 L24,85.7969 M11,66.7969 L37,66.7969 M24,85.7969 L11,100.7969 M24,85.7969 L37,100.7969" style="stroke:#181818;stroke-width:.5"/><text x="5" y="728.581" fill="#000" font-family="sans-serif" font-size="14" lengthAdjust="spacing" textLength="32">User</text><ellipse cx="24" cy="740.383" fill="#E2E2F0" rx="8" ry="8" style="stroke:#181818;stroke-width:.5"/><path fill="none" d="M24,748.3828 L24,775.3828 M11,756.3828 L37,756.3828 M24,775.3828 L11,790.3828 M24,775.3828 L37,790.3828" style="stroke:#181818;stroke-width:.5"/><rect width="82" height="30.297" x="151" y="87.297" fill="#006400" rx="2.5" ry="2.5" style="stroke:#181818;stroke-width:.5"/><text x="158" y="107.292" fill="#FFF" font-family="sans-serif" font-size="14" lengthAdjust="spacing" textLength="68">Ethereum</text><rect width="82" height="30.297" x="151" y="715.586" fill="#006400" rx="2.5" ry="2.5" style="stroke:#181818;stroke-width:.5"/><text x="158" y="735.581" fill="#FFF" font-family="sans-serif" font-size="14" lengthAdjust="spacing" textLength="68">Ethereum</text><rect width="135" height="30.297" x="243" y="87.297" fill="#006400" rx="2.5" ry="2.5" style="stroke:#181818;stroke-width:.5"/><text x="250" y="107.292" fill="#FFF" font-family="sans-serif" font-size="14" lengthAdjust="spacing" textLength="121">AA_ENTRY_POINT</text><rect width="135" height="30.297" x="243" y="715.586" fill="#006400" rx="2.5" ry="2.5" style="stroke:#181818;stroke-width:.5"/><text x="250" y="735.581" fill="#FFF" font-family="sans-serif" font-size="14" lengthAdjust="spacing" textLength="121">AA_ENTRY_POINT</text><rect width="127" height="30.297" x="431" y="87.297" fill="#9932CC" rx="2.5" ry="2.5" style="stroke:#181818;stroke-width:.5"/><text x="438" y="107.292" fill="#FFF" font-family="sans-serif" font-size="14" lengthAdjust="spacing" textLength="113">Sender Contract</text><rect width="127" height="30.297" x="431" y="715.586" fill="#9932CC" rx="2.5" ry="2.5" style="stroke:#181818;stroke-width:.5"/><text x="438" y="735.581" fill="#FFF" font-family="sans-serif" font-size="14" lengthAdjust="spacing" textLength="113">Sender Contract</text><rect width="122" height="30.297" x="568" y="87.297" fill="#8B0000" rx="2.5" ry="2.5" style="stroke:#181818;stroke-width:.5"/><text x="575" y="107.292" fill="#FFF" font-family="sans-serif" font-size="14" lengthAdjust="spacing" textLength="108">Target Contract</text><rect width="122" height="30.297" x="568" y="715.586" fill="#8B0000" rx="2.5" ry="2.5" style="stroke:#181818;stroke-width:.5"/><text x="575" y="735.581" fill="#FFF" font-family="sans-serif" font-size="14" lengthAdjust="spacing" textLength="108">Target Contract</text><polygon fill="#181818" points="180 145.727 190 149.727 180 153.727 184 149.727" style="stroke:#181818;stroke-width:1"/><line style="stroke:#181818;stroke-width:1" x1="24" x2="186" y1="149.727" y2="149.727"/><text x="31" y="144.661" fill="#000" font-family="sans-serif" font-size="13" lengthAdjust="spacing" textLength="144">Submit AA transaction</text><path fill="#FEFFDD" d="M197,162.7266 L197,217.7266 L315,217.7266 L315,172.7266 L305,162.7266 L197,162.7266" style="stroke:#181818;stroke-width:.5"/><path fill="#FEFFDD" d="M305,162.7266 L305,172.7266 L315,172.7266 L305,162.7266" style="stroke:#181818;stroke-width:.5"/><text x="203" y="179.793" fill="#000" font-family="sans-serif" font-size="13" lengthAdjust="spacing" textLength="51">execute</text><text x="203" y="194.926" fill="#000" font-family="sans-serif" font-size="13" lengthAdjust="spacing" textLength="94">AA transaction</text><text x="203" y="210.059" fill="#000" font-family="sans-serif" font-size="13" lengthAdjust="spacing" textLength="97">state transition</text><polygon fill="#181818" points="298.5 225.125 308.5 229.125 298.5 233.125 302.5 229.125" style="stroke:#181818;stroke-width:1"/><line style="stroke:#181818;stroke-width:1" x1="192" x2="304.5" y1="229.125" y2="229.125"/><path fill="#EEE" d="M233,269.125 L402,269.125 L402,276.2578 L392,286.2578 L233,286.2578 L233,269.125" style="stroke:#000;stroke-width:1.5"/><rect width="342" height="175.664" x="233" fill="none" style="stroke:#000;stroke-width:1.5" y="269.125"/><text x="248" y="282.192" fill="#000" font-family="sans-serif" font-size="13" font-weight="bold" lengthAdjust="spacing" textLength="124">Validation Phase</text><polygon fill="#181818" points="482.5 343.523 492.5 347.523 482.5 351.523 486.5 347.523" style="stroke:#181818;stroke-width:1"/><line style="stroke:#181818;stroke-width:1" x1="310.5" x2="488.5" y1="347.523" y2="347.523"/><text x="317.5" y="327.325" fill="#000" font-family="sans-serif" font-size="13" lengthAdjust="spacing" textLength="152">Validate AA Transaction</text><text x="317.5" y="342.457" fill="#000" font-family="monospace" font-size="13" lengthAdjust="spacing" textLength="160">senderValidationData</text><path fill="#FEFFDD" d="M424,360.5234 L424,385.5234 L565,385.5234 L565,370.5234 L555,360.5234 L424,360.5234" style="stroke:#181818;stroke-width:.5"/><path fill="#FEFFDD" d="M555,360.5234 L555,370.5234 L565,370.5234 L555,360.5234" style="stroke:#181818;stroke-width:.5"/><text x="430" y="377.59" fill="#000" font-family="monospace" font-size="13" lengthAdjust="spacing" textLength="120">ACCEPTROLE 0xA1</text><polygon fill="#181818" points="321.5 407.789 311.5 411.789 321.5 415.789 317.5 411.789" style="stroke:#181818;stroke-width:1"/><line style="stroke:#181818;stroke-width:1;stroke-dasharray:2,2" x1="315.5" x2="493.5" y1="411.789" y2="411.789"/><text x="327.5" y="406.723" fill="#000" font-family="sans-serif" font-size="13" lengthAdjust="spacing" textLength="63">valid: true</text><path fill="#EEE" d="M233,483.7891 L399,483.7891 L399,490.9219 L389,500.9219 L233,500.9219 L233,483.7891" style="stroke:#000;stroke-width:1.5"/><rect width="467" height="190.797" x="233" fill="none" style="stroke:#000;stroke-width:1.5" y="483.789"/><text x="248" y="496.856" fill="#000" font-family="sans-serif" font-size="13" font-weight="bold" lengthAdjust="spacing" textLength="121">Execution Phase</text><polygon fill="#181818" points="482.5 533.188 492.5 537.188 482.5 541.188 486.5 537.188" style="stroke:#181818;stroke-width:1"/><line style="stroke:#181818;stroke-width:1" x1="310.5" x2="488.5" y1="537.188" y2="537.188"/><text x="317.5" y="516.989" fill="#000" font-family="sans-serif" font-size="13" lengthAdjust="spacing" textLength="151">Execute AA Transaction</text><text x="317.5" y="532.122" fill="#000" font-family="monospace" font-size="13" lengthAdjust="spacing" textLength="152">senderExecutionData</text><path fill="#FEFFDD" d="M424,550.1875 L424,575.1875 L565,575.1875 L565,560.1875 L555,550.1875 L424,550.1875" style="stroke:#181818;stroke-width:.5"/><path fill="#FEFFDD" d="M555,550.1875 L555,560.1875 L565,560.1875 L555,550.1875" style="stroke:#181818;stroke-width:.5"/><text x="430" y="567.254" fill="#000" font-family="monospace" font-size="13" lengthAdjust="spacing" textLength="120">ACCEPTROLE 0xA3</text><polygon fill="#181818" points="617 637.586 627 641.586 617 645.586 621 641.586" style="stroke:#181818;stroke-width:1"/><line style="stroke:#181818;stroke-width:1" x1="494.5" x2="623" y1="641.586" y2="641.586"/><text x="501.5" y="621.387" fill="#000" font-family="sans-serif" font-size="13" lengthAdjust="spacing" textLength="96">AA Transaction</text><text x="501.5" y="636.52" fill="#000" font-family="sans-serif" font-size="13" lengthAdjust="spacing" textLength="98">Execution Body</text></g></svg>